# xmcd
#
# Track frame offsets:
#	182
#	13950
#	39630
#	62352
#	89732
#	107787
#	129932
#	172740
#
# Disc length: 2540 seconds
#
# Revision: 2
# Processed by: cddbd v1.5.1PL0 Copyright (c) Steve Scherf et al.
# Submitted via: dBpowerAMP V4.0
#
DISCID=6109ea08
DTITLE=Etta James - Live From San Fransciso
DYEAR=1994
DGENRE=Blues
TTITLE0=I Just Want To Make Love To You
TTITLE1=Take It To The Limit
TTITLE2=Baby What You Want Me To Do
TTITLE3=Sugar On the Floor
TTITLE4=Tell Mama
TTITLE5=I'd Rather Go Blind
TTITLE6=Otis Redding Medley - Hard To Handle/Just One More Day/Can't Turn You Loose
TTITLE7=Born Blue
EXTD=010058212522
EXTT0=
EXTT1=
EXTT2=
EXTT3=
EXTT4=
EXTT5=
EXTT6=
EXTT7=
PLAYORDER=
